<?xml version="1.0" encoding="utf-8"?>
<!-- Generator: Adobe Illustrator 22.0.0, SVG Export Plug-In . SVG Version: 6.00 Build 0)  -->
<svg version="1.1" id="Слой_1" xmlns="http://www.w3.org/2000/svg" xmlns:xlink="http://www.w3.org/1999/xlink" x="0px" y="0px"
	 viewBox="0 0 2100 623" style="enable-background:new 0 0 2100 623;" xml:space="preserve">
<style type="text/css">
	.st0{opacity:0.97;fill:#7E7E7E;enable-background:new;stroke:#7E7E7E;stroke-width:4;}
	.st1{opacity:0.57;}
	.st2{fill:#F95500;stroke:#F95500;stroke-width:5;}
</style>
<title>logotypeAjour</title>
<g id="Слой_рисунка">
	<path class="st0" d="M673.6,202.6c-1.3,0.7-2.3,2.3-1.7,3.7c0.7,1.6,2.8,1.9,4.5,1.9l6.8,0.1c1.5,0.1,3-0.1,4.4-0.6
		c1.3-0.7,2.3-2.3,1.7-3.7c-0.7-1.6-2.8-1.9-4.5-1.9L678,202h-0.9C675.9,201.9,674.7,202.2,673.6,202.6L673.6,202.6z"/>
	<path class="st0" d="M1948.3,220.4c-3.4,3.9-3.6,9.6-3.6,14.7c0,28.3,0,56.7,0,85c0,6.2,0.3,13.1,4.7,17.4c3.8,3.8,9.7,4.5,15,4.1
		c6.1-0.4,12.8-2.5,15.8-7.8c1.9-3.4,2-7.5,2-11.5c0-28.6,0-57.2,0-85.7c0-5.9-0.3-12.5-4.5-16.7c-3.5-3.4-8.7-4.1-13.6-4.2h-1.6
		c-5.2,0-10.7,0.9-14,4.7L1948.3,220.4z M1952.5,329.2c-1.8-3.4-1.9-7.5-1.9-11.4c0-28.1,0-56.3,0.1-84.4c0-6.6,5.4-12,12-12
		c3,0,5.9,1.1,8.1,3.2c4.9,4.5,5.2,11.9,5.2,18.6l-0.1,71.3c0,6.2-0.3,13.2-4.8,17.6c-2.2,2-5,3.1-8,3.1
		C1958.9,335.1,1954.6,333,1952.5,329.2L1952.5,329.2z"/>
	<path class="st0" d="M1766,219.1c-4.7,3.9-5.1,10.8-5.1,16.9c0,28.2,0,56.4,0,84.6c0,4.8,0.1,9.9,2.7,14c4.3,6.8,13.9,7.8,21.8,6.4
		c3-0.6,6.2-1.5,8.4-3.6c4.1-3.7,4.4-10,4.4-15.5l0.1-27.1c0-2-0.4-4.6-2.4-5.1c-2.6-0.6-3.8,3.1-3.8,5.9c0,9.2,0,18.4,0.1,27.6
		c0,6.7-5.4,12.2-12.1,12.2c-3.4,0-6.6-1.4-8.9-3.9c-4.2-4.4-4.4-11.2-4.4-17.3c0-24.7,0-49.3,0.1-74c0-4.2,0.1-8.7,2.2-12.4
		c3.4-5.9,10.9-7.9,16.8-4.5c2.4,1.4,4.2,3.5,5.2,6c1.8,4.4,0.9,9.3,0.7,14.1s0.7,10.1,4.7,12.7c1.7-7.4,2.3-15,1.9-22.6
		c-0.3-5.4-1.4-11.2-5.7-14.5c-3.7-2.9-8.7-3-13.3-3h-0.2C1774.6,215.9,1769.6,216.1,1766,219.1L1766,219.1z"/>
	<path class="st0" d="M1829.7,219.5c-0.7,1.2-1.1,2.6-1.1,4.1l-12.4,111c-0.2,1.7-0.2,3.8,1.2,4.7c2.4,1.5,4.8-2,5.4-4.7
		c1.2-5.4,1.7-10.8,1.7-16.3c0-3.9,5.2-5.1,9-5.1h9.9c2.5,0,5.4,0.2,7,2.1c1,1.4,1.5,3.1,1.5,4.8l1.4,13.8c0.3,2.6,1.5,6,4.1,5.6
		s2.8-3.7,2.5-6.1c-4.2-37.2-8.4-74.5-12.6-111.7c-0.4-3.8-5.5-4.8-9.3-4.9h-0.1C1834.9,216.7,1831.3,217,1829.7,219.5L1829.7,219.5
		z M1830,307.2c-0.9,0.1-1.9-0.1-2.7-0.6c-1.1-0.9-1.1-2.6-0.9-4c2.8-24.4,5.5-48.8,8.3-73.1c0.2-2.3,1.2-5.2,3.5-5.1s3,2.8,3.3,5
		c2.8,24.7,5.6,49.3,8.3,73.9c0.2,1,0.1,2.1-0.4,2.9c-0.8,1-2.1,1-3.3,1L1830,307.2L1830,307.2z"/>
	<path class="st0" d="M2035.4,223.3c0.1,9.7,0.2,19.4,0.3,29.1c0,1.3-0.1,2.8-1.1,3.7c-0.9,0.6-2,0.8-3,0.7H2015
		c-1,0.1-1.9-0.1-2.8-0.7c-0.8-0.8-0.9-2-0.9-3.2v-29.7c0-2.4-0.5-5.4-2.8-5.9c-3-0.6-4.3,3.6-4.3,6.6c0,36.8,0,73.6,0,110.4
		c0,1.8,0.2,3.9,1.8,4.8s3.6-0.1,4.5-1.7c0.8-1.6,1.1-3.4,0.9-5.2l-0.3-61.4c0-2.9,0.3-6.3,2.9-7.6c1.1-0.5,2.4-0.7,3.6-0.6h11.7
		c1.2-0.1,2.4,0.1,3.5,0.6c2.5,1.3,2.8,4.7,2.8,7.5c-0.1,21.2-0.1,42.4-0.2,63.6c0,2.4,0.8,5.6,3.2,5.6s3-3.1,3-5.5V221.6
		c0-1.6-0.2-3.6-1.6-4.3c-0.3-0.2-0.7-0.3-1-0.3C2036.8,217,2035.4,220.6,2035.4,223.3L2035.4,223.3z"/>
	<path class="st0" d="M1890.7,218.4c-1.4,1.2-1.5,3.2-1.6,5.1c-1.3,31.9-2.6,63.8-3.9,95.7c-0.1,3.1-0.3,6.2-1.5,9s-3.9,5.2-7,5.1
		c-2.2,0-3.3,3.1-2,4.9s3.8,2.2,5.9,1.7c4.3-0.9,7.7-4.7,9.2-8.8s1.8-8.7,2-13.1c1.2-29.7,2.4-59.5,3.6-89.2
		c0.1-2.9,2.8-5.1,5.6-5.8s5.7,0,8.6,0.6c2.1,0,3.8,1.6,3.9,3.7c0,0.3,0,0.6-0.1,0.9v105.2c0,2.6,0.8,6.1,3.4,6.2
		c2.8,0.1,3.7-3.6,3.7-6.4V222.7c0-1.6-0.1-3.5-1.4-4.5c-1.1-0.7-2.3-1-3.6-0.8l-20-0.1h-0.3C1893.7,217.2,1892,217.3,1890.7,218.4
		L1890.7,218.4z"/>
	<path class="st0" d="M472.6,219.4c-1.8,0.1-3.7,0.3-5,1.5c-1.5,1.4-1.6,3.8-1.6,5.9c0,36.5,0,73,0,109.6c0,2.5,0.6,5.9,3.2,6.2
		c3,0.4,4.1-3.8,4-6.8c-0.1-7-0.2-14.1-0.4-21.1c-0.1-3.6,4.2-5.8,7.8-5.9c1.4,0,2.8,0.1,4.3,0.3c2.2,0.4,4.4,0.4,6.6,0.1
		c4.5-1,7.9-5,9.5-9.3s1.5-9.1,1.5-13.7c-0.1-17.2-0.2-34.5-0.3-51.8c0-6.2-5.2-11.4-11.1-13.5c-3.5-1.2-7.2-1.7-11-1.6
		C477.5,219.1,475,219.2,472.6,219.4L472.6,219.4z M477,303.1c-1.9,0.3-3.7-1-4-2.9c-0.1-0.4,0-0.9,0.1-1.3c0-22.9,0-45.7,0-68.6
		c-0.1-0.8,0.1-1.5,0.4-2.2c0.7-1.2,2.3-1.5,3.7-1.7c6.4-0.6,14.4-0.4,17.1,5.4c0.8,2.1,1.2,4.5,1,6.8c0,17.1,0,34.3,0,51.4
		c0,3,0,6.1-1.6,8.7c-2.3,3.8-7,4.8-11.7,4.8C480.4,303.4,478.7,303.3,477,303.1L477,303.1z"/>
	<path class="st0" d="M306.4,219.3c-2.2,0.1-4.8,0.5-6.1,2.3c-0.9,1.3-1,3-1,4.6c0,36.7,0,73.3,0,110c0,2,0.1,4.2,1.5,5.6
		s4.5,0.9,4.5-1.1v-23.9c0-3.5,1.3-8.3,4.8-7.9c7.7,0.9,17,1.1,21.6-5.2c2.7-3.7,2.8-8.6,2.8-13.2l0.2-49.6c0-4.7,0-9.6-2.4-13.6
		c-3.9-6.6-12.2-8.2-20.2-8.2C310.2,219.1,308.2,219.2,306.4,219.3L306.4,219.3z M310.6,303.2c-1.3,0-2.7-0.4-3.8-1.1
		c-1.3-1.2-1.4-3.1-1.4-4.9c0-21.7,0-43.5,0-65.2c-0.1-1.1,0.1-2.2,0.5-3.2c1.1-2,3.8-2.4,6.1-2.5c5.8-0.3,12.9,0.2,15.4,5.4
		c0.7,1.9,1.1,4,1,6c0.5,19,0.4,38.1-0.2,57.1c-0.1,3.7-3.3,6.7-6.7,7.8c-1.9,0.6-4,0.9-6,0.9C313.8,303.4,312.1,303.3,310.6,303.2
		L310.6,303.2z"/>
	<path class="st0" d="M438.9,219.2l-18.6,0.2c-2.3,0-4.9,0.2-6.4,1.9c-1.3,1.5-1.4,3.7-1.4,5.7c0,36.4,0,72.7,0,109.1
		c-0.1,1.5,0.2,3,0.9,4.4c1.4,2.1,4.4,2.3,6.9,2.3l21.7-0.3c1.6,0,3.5-0.2,4.4-1.6s0-3.5-1.5-4.4c-1.6-0.8-3.3-1.1-5.1-0.9
		l-17.7-0.1c-1.9,0-2.5-2.6-2.6-4.6c0-18.8,0-37.6-0.1-56.4c0-3,0.2-6.6,2.7-8.4c2.2-1.6,5.2-1,7.9-0.4s5.7,1.2,7.9-0.4s1.8-6.1-1-6
		l-13.6,0.4c-1.6,0.5-3.3-0.3-3.8-1.9c-0.2-0.6-0.2-1.2,0-1.8c0-8.4,0-16.9-0.1-25.3c0-1.4,0.1-2.9,1.1-3.7c0.9-0.6,2-0.9,3.1-0.8
		l20.6-0.1c2.4,0,3-3.7,1.3-5.4s-3.9-1.7-6.1-1.7L438.9,219.2z"/>
	<path class="st0" d="M245.8,224.4c0,37.3,0,74.7,0.1,112.1c0,1.8,0.1,3.7,1.4,4.9s3,1.2,4.6,1.2l22.9-0.1c1.4,0,2.9-0.1,3.9-1.1
		c1.3-1.4,0.5-3.9-1.2-4.9s-3.7-1.1-5.6-1.1l-16.2,0.1c-2.9,0-3.9-3.9-3.9-6.8c0-18.8,0-37.5,0-56.3c0-3.5,3.2-6.3,6.6-7
		s6.9,0.1,10.3,1c2.8,0.7,4-4.2,1.8-6s-5.5-1.3-8.4-0.7s-6.2,0.9-8.3-1.1c-1.8-1.7-1.9-4.4-1.9-6.9c0-6.3,0-12.6,0-18.9
		c0-2.7,0.8-6.4,3.6-6.4l18.7-0.1c1.7,0,3.8-0.2,4.6-1.7s-0.1-3.5-1.6-4.4c-1.6-0.7-3.3-1.1-5-0.9l-17-0.1H255
		C251,219.3,245.7,220.5,245.8,224.4L245.8,224.4z"/>
	<path class="st0" d="M186.1,219.4c-3.1,0-2.9,5.4,0,6.7s6.1,0.1,9.2-0.2s7.1,1.2,7.1,4.3c0,35.9,0,71.8,0,107.7
		c0,1.4,0.1,2.9,1.1,3.8c1.4,1.3,3.9,0.5,5-1.1s1.1-3.7,1.1-5.6c0-35,0-69.9-0.1-104.9c0-3.1,4-4.6,7.1-4.3s6.4,1.4,9.2,0.1
		s3.1-6.7,0-6.7h-39.6L186.1,219.4z"/>
	<path class="st0" d="M68,225.4V339c-0.1,1.1,0.1,2.1,0.7,3c1.2,1.3,3.6,0.7,4.6-0.8s1-3.4,1-5.2L73.7,295
		c-0.2-14.7,12.7-25.8,24.5-34.6c0.1,25.9,0.1,51.7,0.2,77.6c0,2,0.4,4.6,2.4,5c2.5,0.5,3.6-3,3.6-5.6c0-37.5,0-74.9,0-112.4
		c0-1.9-0.3-4.3-2.1-4.8c-2.7-0.9-4.1,3.2-4.1,6c0.1,6.1,0.2,12.2,0.3,18.3c0.1,5.6-4.2,10.1-8.2,14l-15.8,15.4
		c-0.1-16.3-0.3-32.7-0.4-49c0-2-0.5-4.6-2.5-4.9c-0.1,0-0.3,0-0.4,0C68.9,219.9,68,223.1,68,225.4L68,225.4z"/>
	<path class="st0" d="M557.5,220c-2.2,0.2-2.7,3.1-2.7,5.2l0.1,32.1c0,1.9-2.5,2.5-4.3,2.5l-13.7,0.1c-1.7,0-3.6-0.1-4.8-1.2
		c-1.4-1.3-1.5-3.5-1.5-5.4l0.3-26.7c0-2.7-0.8-6.4-3.5-6.5s-3.8,3.7-3.8,6.5c0,36,0,72.1,0,108.2c0,2.3,0.1,4.9,1.8,6.6
		s5.3,1,5.3-1.3v-68.2c0-1.7,0.1-3.6,1.3-4.8s3.1-1.3,4.8-1.3h12.2c1.8,0,3.7,0.1,4.9,1.4s1.1,2.9,1.1,4.5l-0.1,64.6
		c-0.2,1.6,0.2,3.3,0.9,4.8c0.9,1.4,3,2.1,4.2,1c0.9-0.8,1-2.2,1-3.4V225.6c0-2.4-0.9-5.6-3.1-5.6C557.7,220,557.6,220,557.5,220
		L557.5,220z"/>
	<path class="st0" d="M585.2,220.9c-0.9,0.9-1,2.4-1,3.8c0,37.9,0,75.8,0,113.7c-0.1,0.9,0.1,1.7,0.5,2.5c0.7,1,2,1.2,3.2,1.4
		c5.6,0.7,11.2,1.4,16.8,0.4s10.9-4.1,13.3-9.2c1.7-3.6,1.7-7.7,1.7-11.6c0-13.1-0.1-26.1-0.1-39.2c0-4.7,0-9.5-1.7-13.9
		s-5.3-8.4-9.9-9c-1.9-0.2-3.8-0.1-5.7,0.3c-1.4,0.2-2.7,0.4-4.1,0.4c-3.3,0-7.1-2-7.1-5.3l0.4-27.1c0-2,0-4.1-1.1-5.8
		c-0.7-1.1-2-1.8-3.3-1.8C586.3,220.2,585.7,220.5,585.2,220.9L585.2,220.9z M594.7,335.4c-1.7,0.3-3.3-0.9-3.5-2.6
		c-0.1-0.4,0-0.7,0-1.1c0-20.2,0-40.3,0-60.4c-0.1-1.2,0.1-2.3,0.6-3.4c1.2-2.1,4-2.4,6.5-2.3c5,0.1,10.8,1.1,13,5.5
		c1.1,2.1,1.1,4.6,1.1,7l0.1,44.9c0,2.9,0,5.9-1.5,8.3c-2.2,3.5-6.4,4.5-10.8,4.5C598.3,335.8,596.5,335.6,594.7,335.4L594.7,335.4z
		"/>
	<path class="st0" d="M160.4,220.6c-1.4,0.9-1.5,2.9-1.5,4.6c0,10.6,0.1,21.2,0.1,31.8c0,2.2-2.9,2.9-5,2.9h-12.8
		c-2.2,0-4.7-0.2-5.9-2c-0.6-1.1-0.8-2.3-0.7-3.5c0-10.6,0-21.1,0-31.7c0-2.3-3.7-3-5.3-1.4s-1.8,4.3-1.8,6.6c0,36,0,72,0.1,108
		c0,3.1,1.4,7.3,4.4,6.6c2.2-0.5,2.7-3.5,2.7-5.8l-0.1-65.4c-0.1-1.3,0.1-2.5,0.7-3.6c1.1-1.7,3.5-1.9,5.6-1.9l11.1-0.1
		c1.7,0,3.4,0,4.8,1c1.9,1.4,2.1,4.2,2.1,6.6c0,21.4-0.1,42.8-0.1,64.2c0,1.8,0.2,3.8,1.7,4.7s3.6-0.1,4.5-1.6
		c0.8-1.6,1.1-3.4,0.9-5.2c0-36,0-71.9,0-107.9c0.1-1.8-0.2-3.7-1-5.3c-0.7-1.1-1.9-1.9-3.2-1.9
		C161.3,220.2,160.8,220.4,160.4,220.6L160.4,220.6z"/>
	<path class="st0" d="M357.9,220.8c-0.9,0.9-1,2.3-1,3.6c0,37.6,0,75.2-0.1,112.7c0,4.6,6.1,6,10.7,6.1c7.1,0,15-0.3,19.8-5.4
		c4.5-4.8,4.8-12,4.8-18.6c0-11.8,0-23.6,0-35.4c0-4.9,0-10-1.7-14.6s-5.5-8.8-10.4-9.5c-1.9-0.2-3.7-0.1-5.6,0.2
		c-1.5,0.2-2.9,0.3-4.4,0.3c-3.3-0.1-7.1-2.5-6.8-5.8c0.9-9.3,1-18.6,0.4-27.9c0-1.7-0.4-3.4-1.3-4.9c-0.7-0.9-1.7-1.4-2.9-1.4
		C358.9,220.2,358.4,220.4,357.9,220.8L357.9,220.8z M368.4,335.5c-1.5-0.1-3.1-0.4-3.9-1.7c-0.4-0.8-0.5-1.7-0.5-2.5
		c0-20.3,0-40.7-0.1-61c0-1.3,0-2.8,1-3.7s2.5-1.1,3.9-1c3.5,0,7.1,0,10.3,1.4s6,4.4,6,7.9c0.1,15.5,0.1,31,0.2,46.5
		c0,3.8-0.1,8-2.6,10.9s-6.1,3.5-9.8,3.5C371.3,335.8,369.8,335.6,368.4,335.5L368.4,335.5z"/>
	<path class="st0" d="M633.5,222.3c-0.7,1.6-1,3.3-0.9,5l0.1,110.6c0,1.4,0.1,3,1.2,4c1.4,1.2,3.8,0.4,4.8-1.2s1-3.6,1-5.5
		c0-36.6,0-73.1,0-109.7c0-1.9-0.2-4.1-1.9-5c-0.4-0.2-0.7-0.3-1.1-0.3C635.3,220.3,634.1,221.1,633.5,222.3L633.5,222.3z"/>
	<path class="st0" d="M692.7,222.1c-1.2,1.7-1.2,4.1-1.1,6.2c0.7,9,2.9,19.3-3,26.1c-6,6.9-12.7,13.2-19.8,18.9
		c0.2-16.2,0.2-32.3,0.1-48.5c0-1.3-0.1-2.7-1-3.6c-1.4-1.4-3.9-0.6-4.9,1s-1.1,3.6-1.1,5.6c0,35.8,0,71.6,0,107.4
		c0,1.8,0,3.8,1,5.4s3.2,2.5,4.7,1.4c1.3-0.9,1.4-2.7,1.4-4.3l0-51.3c0-3.6,2.6-6.6,5.1-9.2c5.8-6,11.9-11.6,18.3-16.9
		c0,25.9,0,51.9-0.1,77.8c0,1.6,0.1,3.4,1.5,4.2c2.7,1.7,4.9-2.9,4.9-6.1l0.2-111.6c0.1-1.1-0.1-2.2-0.7-3.1c-0.5-0.7-1.3-1-2.2-1
		C694.7,220.5,693.5,221.1,692.7,222.1L692.7,222.1z"/>
	<path class="st0" d="M740.9,277.7c-2,3.7-0.6,8.4,3.1,10.4c3.7,2,8.4,0.6,10.4-3.1c2-3.7,0.6-8.3-3-10.3c-1.1-0.6-2.3-0.9-3.5-0.9
		C745,273.7,742.3,275.2,740.9,277.7L740.9,277.7z"/>
	<path class="st0" d="M1710.1,274.7c-4.9,2.8-4.5,11.4,0.7,13.7s11.8-3.2,10.6-8.7c-0.8-3.5-4.4-5.8-7.8-5.8
		C1712.3,273.8,1711.2,274.1,1710.1,274.7L1710.1,274.7z"/>
</g>
<g id="Фигура_91_1_" class="st1">
	<path class="st2" d="M807.8,285.1c0.5-1.9,1.1-3.7,1.5-5.5c1.1-4.9,5.5-7.7,10.3-6.5c2.9,0.8,4.3,4.6,3.5,8.3
		c-1.2,4.9-2.1,9.9-2.9,14.8c-1,5.7-1.8,11.5-2.6,17.3c-0.3,2.2-0.5,4.5-0.5,6.8c-0.1,10.9-0.4,21.9,0.1,32.8
		c0.4,7.8,1.9,15.5,3,23.2c0.9,6.1,2,12.2,3.1,18.3c0.5,2.5,1.3,5,2,7.4c1.6,5.2,3.6,10.2,6.7,14.8c3.2,4.6,7.4,8.3,12.7,9.5
		c6.5,1.6,13,1.7,18-4.3c5.6-6.8,11.7-13.1,17.3-20c7.6-9.5,15.1-19.1,22.3-29c6.1-8.4,11.6-17.2,17.2-25.9
		c3.6-5.5,7.3-11.1,10.6-16.8c4.2-7.4,8.1-15.1,12-22.6c1.7-3.2,3.2-6.4,4.8-9.6c0.9-1.7,0.9-2.7-1.1-4c-3.9-2.5-7.8-5.3-11.2-8.6
		c-5.4-5.2-9.1-11.8-10.5-19.1c-1.1-5.7-0.7-11.5,1.2-17.3c2.3-7.1,6.5-12.4,12.2-16.6c6.6-4.7,14-5.7,21.8-3.3
		c6.5,2,11.9,5.8,15.4,11.8c0.8,1.3,1.3,2.7,1.9,4.1c0.2,0.4,0.4,0.8,0.6,1.1c0.3-0.3,0.8-0.6,1-1c3.5-6.1,6.9-12.1,10.3-18.2
		c4.2-7.4,8.5-14.7,12.6-22.1c3.3-5.9,6.4-12,9.7-17.9c5.4-9.6,11.1-19,16.6-28.5c5.3-9.2,10.3-18.6,15.6-27.9
		c3.1-5.5,6.4-10.8,9.5-16.2c3.7-6.5,7.3-13.2,11-19.7c4-7.1,8.1-14.2,12-21.4c3.3-5.9,6.4-12,9.7-17.9c3.4-5.9,7-11.7,10.3-17.7
		c2.1-3.8,4.6-7.3,8.7-9.3c1.1-0.1,2.2-0.1,3.5-0.1c1,1.3,2.4,2.5,2.6,3.9c0.3,2.5,0.2,5.2-0.5,7.6c-1.5,5.9-3.4,11.7-5.1,17.5
		c-2.9,10.1-5.9,20.1-8.7,30.2c-1.7,6.3-3,12.7-4.7,19c-1.9,6.7-4.2,13.2-6.1,19.9c-1.9,6.6-3.4,13.2-5.2,19.8
		c-1.5,5.6-3,11.1-4.6,16.7c-2.9,10-5.9,19.9-8.7,30c-1.7,6.3-3.1,12.7-4.8,18.9c-1.4,5-3.2,9.9-4.6,14.9
		c-2.3,8.3-4.4,16.6-6.8,24.8c-2.8,10.1-5.8,20.1-8.7,30.2c-1.4,5-2.8,10-4.2,15.1c-0.4,1.4,0.3,2.1,1.7,1.7
		c3.4-0.8,6.9-1.5,10.3-2.6c4.3-1.4,8.6-2.9,12.8-4.6c6.2-2.6,12.4-5.4,18.4-8.5c6.5-3.3,12.8-7,19-10.8c4.5-2.7,8.8-5.8,13.1-8.9
		c5.7-4.1,11.4-8.4,17-12.6c3.4-2.6,6.7-5.4,10.1-8.2c5.4-4.5,10.9-9.1,16.3-13.7c2.6-2.3,5-4.8,7.7-7.1c4-3.4,7.5-7.6,12.6-9.5
		c5.9-2.2,11.4-1,14,5.8c2.5,6.7,1.4,13.4,0.3,20.1c-0.5,3.2-0.9,6.5-1.4,9.7c-1.2,7.7-2.5,15.3-3.6,23c-0.7,4.5-1,9.1-1.6,13.6
		c-0.8,5.7-1.8,11.5-2.7,17.2c-0.4,2.4-0.6,4.7-0.9,7.1c0,0.4,0.3,0.8,0.4,1.3c0.3-0.2,0.8-0.4,1-0.7c2.3-2.8,4.5-5.5,6.8-8.3
		c2.9-3.6,5.9-7.2,8.8-10.8c4.9-6.1,9.7-12.2,14.6-18.2c3.4-4.2,7-8.3,10.4-12.5c3.5-4.2,6.8-8.6,10.3-12.8
		c4.2-5,8.3-10.1,12.9-14.8c2.7-2.8,6.2-5.5,10.7-3.5c1.5,0.7,3.1,2.1,3.7,3.6c0.8,2,1.1,4.3,1.1,6.5c0.1,5.6,0.1,11.2,0,16.8
		c-0.2,17.8-0.3,35.7-0.5,53.5c-0.2,16.6-0.3,33.3-0.5,49.9c0,0.5-0.1,1,0,1.5c0.1,0.3,0.3,0.6,0.5,0.9c0.2-0.2,0.4-0.4,0.5-0.7
		c2.2-4.9,4.5-9.8,6.7-14.8c1.8-4.1,3.5-8.2,5.3-12.3c2.4-5.4,4.7-10.8,7.1-16.2c2.8-6.2,5.6-12.3,8.4-18.5
		c2.5-5.5,4.8-11.1,7.3-16.6c2.8-6.1,5.6-12.1,8.4-18.2c2.3-5.1,4.4-10.3,7-15.2c3-5.7,6.4-11.2,12.6-14.3
		c6.7-3.3,11.7-0.9,15.7,4.1c1.2,1.5,1.9,3.3,2.6,5.1c0.9,2.3-1.1,6-3.8,7.5c-8.2,4.5-15.6,10.2-21.8,17.1
		c-6.1,6.8-11.3,14.3-14.7,22.8c-2.1,5.2-4.5,10.2-6,15.6c-1.3,4.2-1.8,8.7-2.2,13c-0.5,5-0.8,10-0.5,15c0.3,4.7,1.2,9.4,2.3,14
		c0.8,3.6,2.1,7,3.3,10.5c2.1,5.9,5.9,10.5,11.5,13.1c3.6,1.6,7.6,1.8,11.6,0.7c7-1.9,12.9-5.6,18.2-10.4
		c7.2-6.6,13.2-14.2,18.6-22.2c4.3-6.4,8.7-12.7,12.5-19.4c3.1-5.4,5.7-11.2,8.3-17c2.2-4.9,4.2-10,6.2-15c1.3-3,5.2-4.1,9.2-2.5
		c5.6,2.2,7.7,7,9.4,12.3c1.3,3.8,2.7,7.8,4.9,11.1c2.5,3.8,8.2,5.9,14.5,4.2c6.9-1.8,12.6-5.6,17.6-10.4
		c8.7-8.3,16.1-17.7,23.1-27.4c4.4-6.1,8.2-12.7,12.1-19.3c2.4-4,4.6-8.2,6.4-12.6c3.9-9.6,7.8-19.2,11.1-29c1.3-4,6.7-5.8,9.8-5.1
		c7.3,1.6,10.8,6.7,10.5,13.9c-0.2,3.5-0.7,6.9-1,10.4c0,0.4,0.1,0.8,0.1,1.2c0.3-0.2,0.7-0.4,0.9-0.6c2.6-3.5,5.2-6.9,7.8-10.5
		c8.7-12.2,17.3-24.5,26.1-36.7c3.4-4.8,6.9-9.6,10.6-14.2c2.8-3.4,7.7-2.4,9.9,1.5c2.5,4.5,2.2,9.4,1.7,14.3c-0.3,3-0.4,6-0.7,9
		c-0.6,6.1-1.4,12.2-2,18.3c-0.3,2.8-0.3,5.7-0.6,8.6c-0.6,6.3-1.4,12.5-2,18.8c-0.4,3.6-0.7,7.1-1,10.7c-0.5,4.4-1,8.7-1.5,13
		c-0.1,0.5,0.2,1.1,0.3,1.6c0.4-0.3,0.9-0.6,1.2-1c3.6-5.6,6.9-11.4,10.9-16.6c2.9-3.8,6.4-7.2,10.1-10.2c4.4-3.5,9.4-5.6,15.2-6.4
		c7.8-1,14.5,1.2,21.1,4.9c7.9,4.5,13.9,10.9,18.6,18.4c4.5,7.2,7.3,15.1,9.3,23.3c0.8,3.4,0.9,6.9,1.5,10.3
		c0.1,3.9,0.1,7.7,0.1,11.8c-0.3,1.7-0.8,3.3-1,5c-0.7,5.3-2,10.4-3.5,15.6c-2.7,9.5-7.2,18.1-12.9,25.9
		c-5.5,7.5-11.9,14.2-20.2,18.8c-1.8,1-3.6,2.2-5.4,3.3c-0.9,0.5-1.3,0.5-1.6-0.8c-1.2-5,1.2-8.8,4.3-12c4.2-4.6,9-8.6,13.4-13
		c6.9-7.1,11.6-15.5,15-24.8c3.6-10,4.9-20.3,4-30.8c-0.5-5.8-1.8-11.6-4-17.2c-2.7-6.8-6.3-13.2-11.4-18.5
		c-5.8-6-12.6-10.3-21.5-10.3c-7.5,0-13.6,2.8-19.3,7.1c-7.1,5.3-12.4,12.3-16.2,20.1c-3.3,6.7-5.8,14-7.8,21.3
		c-1.8,6.6-2.7,13.6-3.7,20.4c-0.9,6.1-1.5,12.3-2.1,18.5c-0.3,3.7-0.4,7.4-0.5,11.1c-0.4,8.7-0.7,17.3-1,26
		c-0.1,3.6-0.4,7.3-0.5,10.9c-0.2,10-0.3,20-0.5,30c-0.1,6.8-0.4,13.6-0.5,20.4c-0.2,16.3-0.4,32.6-0.5,48.9
		c0,6.7,0.3,13.5,0.5,20.2c0.3,8.4,0.6,16.8,1,25.1c0.4,7.6,1,15.2,1.5,22.9c0.4,5.4,0.9,10.8,1.6,16.1c0.8,6.3,1.8,12.5,2.5,18.8
		c0.5,3.7,0.8,7.4-0.9,11.1c-1.2,2.6-2.4,3.6-5.3,3.4c-2-0.1-3.8-2.3-4.1-4.5c-0.6-4.3-0.8-8.7-1.1-13c-0.3-4.9-0.3-9.8-0.5-14.8
		c-0.3-7-0.8-14-1-21c-0.3-8-0.4-16-0.5-24.1c-0.2-8-0.4-16-0.5-24.1c-0.2-17.3-0.4-34.6-0.5-52c0-7.4,0.3-14.8,0.5-22.3
		c0.2-8.2,0.3-16.4,0.5-24.6c0.2-7.3,0.3-14.7,0.5-22c0.1-5,0.1-10,0.6-15c0.4-5.2,1.4-10.3,2-15.4c0.2-1.4,0-2.8,0-4.1
		c0.5-9.5,1-19,1.6-28.5c0.4-6.2,1-12.3,1.5-18.5c0.6-6.6,1.4-13.2,2-19.8c0.4-4.3,0.6-8.7,1.1-13c0.6-5.7,1.4-11.5,2-17.2
		c0.4-3.6,0.6-7.1,1.1-10.7c0.6-5.4,1.4-10.8,2-16.2c0.4-3.4,0.6-6.8,1.1-10.2c0.6-4.8,1.4-9.6,2-14.4c0.1-0.8-0.3-1.7-0.4-2.6
		c-0.5,0.4-1.1,0.7-1.6,1.1c-6.2,5.2-12.8,10-18.5,15.6c-6.6,6.5-12.1,13.9-17.1,21.8c-4.8,7.5-8.8,15.4-12,23.7
		c-2.2,5.8-3.9,11.9-5.5,17.9c-1.9,7.3-3,14.7-3.1,22.2c-0.2,6.7-0.4,13.5-0.5,20.2c-0.2,10-0.2,20-0.6,30
		c-0.3,6.9-0.8,13.7-1.5,20.5c-0.8,7.4-2,14.8-3.1,22.2c-1,6.6-2,13.1-3.1,19.6c-1.2,6.9-2.2,13.8-3.7,20.7
		c-1.1,5.4-2.7,10.7-4.1,16.1c-1.3,5.1-2.3,10.2-3.7,15.3c-1.8,6.6-3.5,13.2-5.7,19.6c-3.5,10-6.9,20.1-11.2,29.7
		c-3.3,7.4-8.1,13.9-15.4,18.3c-7.4,4.4-14.8,6-23.1,3c-4.5-1.6-7.3-5.1-10.1-8.6c-4.3-5.4-6.3-11.9-8.2-18.3
		c-4-13.5-3.6-27.4-3.1-41.3c0.2-5.8,1.7-11.6,2.9-17.3c1.4-6.9,3-13.7,4.8-20.5c1.1-4.1,2.8-8.1,4.2-12.2c1.7-4.9,3.2-9.8,5.1-14.7
		c2.3-5.9,4.9-11.6,7.3-17.4c1.2-2.9,2.3-5.8,3.5-8.6c1.2-2.7,2.5-5.3,3.8-8c3.5-7.2,7-14.3,10.6-21.4c2.7-5.2,5.7-10.2,8.6-15.3
		c3-5.2,5.9-10.5,9.1-15.6c3.5-5.7,7.3-11.3,11-16.9c3.2-4.9,6.6-9.8,9.6-14.9c3.2-5.3,6.5-10.6,8.9-16.2c2.5-5.7,5.1-11.6,5.1-18
		c0-4,0-8,0-12c0-0.8-0.5-1.7-0.7-2.5c-0.6,0.6-1.3,1.1-1.8,1.8c-2.1,3.1-4.2,6.2-6.2,9.3c-3.2,5-6.2,10-9.3,15
		c-4.1,6.4-8.3,12.7-12.4,19.1c-3.2,5-6.1,10.1-9.4,15c-4.2,6.2-8.4,12.5-13.2,18.3c-3.4,4.1-7.3,7.9-11.6,11.1
		c-6.5,4.8-13.8,8-22.1,7c-7.4-0.9-14.6-3-19.7-9.1c-2-2.4-3.1-5.6-4.6-8.4c-0.3-0.5-0.6-1-1-1.6c-0.4,0.5-0.8,0.9-1.1,1.4
		c-1.9,3.2-3.8,6.5-5.8,9.7c-4.3,6.8-8.4,13.6-13,20.2c-4,5.7-8.5,11-13.1,16.3c-5.4,6.2-10.9,12.3-16.6,18.2
		c-4.2,4.3-8.9,8.1-14.5,10.4c-8.5,3.4-17,3.1-24.8-2.5c-5.1-3.7-8.9-8.5-11.7-14.2c-2.6-5.4-3.9-11-4.8-16.9c-0.6-4-1-8-1.6-12
		c0-0.4-0.3-0.7-0.4-1c-0.3,0.3-0.6,0.6-0.8,1c-2.5,5-4.9,10-7.3,15.1c-2.4,5.1-4.7,10.3-7.1,15.4c-1.4,3-3,6-4.3,9.1
		c-1.1,2.5-2.5,4.8-4.9,6c-2.6,1.3-5.9-0.9-7.1-4.2c-1.1-3.1-1.7-6.3-1.6-9.7c0.2-5,0-10,0.1-15c0.1-7.3,0.3-14.7,0.5-22
		c0.1-5.7,0.4-11.4,0.5-17.1c0.2-13.1,0.3-26.2,0.5-39.3c0.1-6.8,0.3-13.6,0.5-20.4c0.1-2.9,0.3-5.9,0.5-8.8c0-0.4-0.2-0.9-0.3-1.4
		c-0.5,0.1-1,0.2-1.4,0.4c-13.3,9.8-25.1,21.2-36.2,33.3c-7,7.6-13.3,16-19.4,24.5c-5.3,7.5-10.1,15.4-14.6,23.4
		c-3.1,5.4-5.6,11.2-8.3,17c-2.5,5.4-5,10.9-7.1,16.4c-2.1,5.5-4,11.1-5.6,16.8c-2.1,7.2-4.2,14.4-5.6,21.7c-0.8,4.2-2,7.5-5.6,9.8
		c-3.5,2.3-7.3,2.6-11.2,1.6c-7.4-1.9-11.3-6.8-12.4-14.4c-1.3-9.2,2-16.9,7.2-24c3.7-5.1,8.1-9.7,11.9-14.7
		c4.9-6.4,9.9-12.8,14-19.8c4.7-8,8.6-16.6,12.3-25.1c3.2-7.3,5.5-14.9,6.8-22.7c0.8-4.9,2.1-9.6,3-14.5c0.4-2.2,0.5-4.5,0.5-6.8
		c0.2-7.9,0.7-15.9,0.4-23.8c-0.2-6-1.6-11.9-2.5-17.8c0-0.1,0-0.2,0-0.3c-0.2-1.2-0.4-2.4-0.6-3.6c-1.1,0.8-2.2,1.6-3.3,2.4
		c-5.4,4.3-10.7,8.7-16.1,12.9c-6.5,5.1-13,10.1-19.6,15c-6.6,4.8-13.4,9.5-20.3,13.9c-6.6,4.3-13.4,8.3-20.2,12.2
		c-6.1,3.5-12.4,6.7-18.6,10c-4.5,2.4-9,4.9-13.6,7.1c-3.8,1.9-7.7,3.5-11.5,5.3c-4.1,1.9-8.3,3.6-12.3,5.8c-3.6,2-5.2,5.7-6.4,9.4
		c-1.8,5.8-3.5,11.7-4.7,17.7c-1.4,6.8-2.2,13.8-3.2,20.7c-0.9,6.4-1.8,12.9-2.6,19.3c-0.3,2.3-0.5,4.7-0.5,7
		c-0.1,10.8-0.1,21.5,0,32.3c0.1,5.3,0.8,10.6,0.9,15.8c0.1,3.5-0.6,7-3.1,9.8c-1.6,1.8-5.1,2.3-7.5,1c-2.5-1.3-2.8-2.6-2.2-6.1
		c0.8-4.9,1.7-9.9,2-14.9c0.7-10.8,1.6-21.6,1.4-32.4c-0.2-8.7-0.5-17.4-2.3-26.1c-1.4-6.6-1.9-13.3-3.3-19.9
		c-1.1-5.2-3.1-10.1-4.3-15.2c-0.8-3.2-1.9-6.1-3.7-8.8c-1.8-2.8-4.4-3.3-7.3-3.5c-6.8-0.4-13.5-0.8-20.1-2.6
		c-6.1-1.7-12.3-3-18.5-4.7c-2.1-0.6-4.1-1.7-6.2-2.5c-0.5-0.2-1.5,0.1-1.8,0.4c-2.1,3.5-4.2,7-6.2,10.6c-3,5.3-5.8,10.7-8.8,16
		c-3.2,5.7-6.4,11.5-9.9,17.1c-3.3,5.3-6.9,10.4-10.4,15.6c-2.7,4.1-5.4,8.3-8.2,12.3c-6.5,9.1-13,18.2-19.6,27.3
		c-4.3,5.8-8.6,11.7-13.2,17.3c-5.6,6.9-11.9,13-20,17c-5.8,2.9-11.7,3.5-17.5,0.6c-2.6-1.3-4.8-3.9-6.7-6.3
		c-5.1-6.8-7.6-14.7-9.9-22.7c-2-7.1-4.4-14.1-6.1-21.2c-1.3-5.5-2-11.1-2.6-16.7c-0.9-7.9-1.5-15.8-2.1-23.7
		c-0.5-6.7-0.9-13.5-1.4-20.3C807.8,311.6,807.8,298.4,807.8,285.1 M1419.9,500.6c0.5,1.2,1.1,2.3,1.5,3.5c1.9,4.9,4,9.6,9,12.3
		c6.4,3.5,12.6,2.4,18.5-1c5-2.9,8.8-7.1,11.8-12c2.7-4.5,5.4-9.1,7.7-13.8c3-6.3,5.9-12.7,8.3-19.3c2.7-7.5,5-15.2,7.3-22.8
		c1.6-5.3,3-10.7,4.1-16.1c1.3-6.2,2.1-12.6,3.1-18.8c1.2-7.8,2.5-15.5,3.6-23.3c0.6-4.2,1-8.5,1.6-12.8c0.8-6.4,1.8-12.9,2.5-19.3
		c0.6-5.5,1.1-11.1,1.6-16.7c0.6-7.7,1.1-15.4,1.5-23.1c0.4-7.9,0.8-15.7,1-23.6c0.3-9.3,0.4-18.6,0.5-27.9c0-0.5-0.2-1-0.3-1.4
		c-0.5,0.3-1.1,0.5-1.4,0.9c-3.2,4.7-6.4,9.4-9.5,14.1c-3.3,5.1-6.5,10.2-9.7,15.3c-3.4,5.3-6.9,10.6-10.1,16
		c-2.9,4.9-5.6,9.9-8.3,14.9c-3.4,6.1-6.8,12.2-10,18.3c-2.4,4.6-4.6,9.3-6.8,14c-2.5,5.2-5,10.5-7.4,15.8
		c-1.9,4.2-3.8,8.4-5.5,12.7c-1.9,4.9-3.6,9.9-5.3,14.8c-1.2,3.5-2.4,7.1-3.6,10.6c-0.8,2.4-1.9,4.7-2.5,7.2
		c-1.7,7.1-3.4,14.1-4.7,21.3c-1.3,6.9-2.5,13.9-2.9,21c-0.4,6.3,0.1,12.8,0.5,19.1c0.2,3,0.9,6,1.5,8.9
		C1418.1,492.9,1419,496.5,1419.9,500.6 M1071.2,157.1c0.9-2.9,1.8-5.8,2.6-8.7c1.4-5,2.7-10.1,4.2-15.1c1.3-4.2,2.8-8.3,4.1-12.5
		c2.3-7.6,4.3-15.3,6.5-22.9c1.7-5.7,3.6-11.2,5.3-16.9c2.5-8,5-16,7.1-24.1c0.8-2.9,0.7-6.1-0.3-9.2c-0.7-1.9-1.3-1.7-2.3-0.5
		c-3.4,4.3-7,8.5-10.1,13.1c-4,6-7.6,12.3-11.3,18.6c-3.5,5.9-7,11.7-10.4,17.7c-2.8,5-5.3,10.2-8.1,15.2
		c-4.7,8.6-9.4,17.1-14.3,25.6c-3.3,5.9-6.9,11.6-10.2,17.5c-4.4,7.8-8.5,15.8-12.8,23.6c-4.1,7.4-8.4,14.6-12.6,21.9
		c-3.3,5.8-6.6,11.7-9.9,17.6c-1.7,2.9-3.5,5.8-5.1,8.7c-3,5.3-6.1,10.6-8.7,16c-1.2,2.6-3.4,5.1-1.5,8.6c2.6,4.8,4.7,9.9,7,14.9
		c2.8,6,5.5,12,8.3,18c2.8,5.9,5.9,11.7,8.4,17.7c1.5,3.6,4.1,4.4,7.3,4c4-0.4,8-1,11.8-2.1c4.1-1.2,8-3,9.3-7.6
		c1.4-5.1,2.7-10.3,3.9-15.4c1.9-8.1,3.8-16.2,5.7-24.2c0.8-3.4,1.8-6.9,2.6-10.3c1.2-5,2.2-10.1,3.4-15.1c1.2-4.9,2.6-9.8,3.9-14.7
		c1.9-7.3,3.8-14.6,5.7-21.9c1.3-4.9,2.8-9.7,4.1-14.6C1067.1,172.7,1069.1,165.2,1071.2,157.1 M942.8,240c-1.1,0.8-2.4,1.4-3.4,2.4
		c-1.4,1.5-2.7,3.1-3.8,4.8c-2.4,3.8-3.5,8.2-3.2,12.5c0.3,5.4,1.7,10.8,5,15.4c3.4,4.6,6.8,9.3,10.5,13.7c2.4,2.9,4.8,2.3,6.6-1
		c1.8-3.5,3.6-7,5.6-10.3c3.9-6.4,7.8-12.8,11.9-19.1c2.7-4.2,3-7.3-0.3-9.7c-4.3-3.2-8.3-6.8-13.3-8.9
		C953.1,237.8,948.2,237.2,942.8,240 M993.5,306.7c1.6,0,3.3,0.1,4.9,0c2.4-0.1,3.9-2.2,3.1-4.4c-2.3-5.8-4.6-11.7-7.1-17.4
		c-2.1-4.9-4.3-9.8-6.9-14.4c-2-3.6-4.5-7-7-10.2c-1.8-2.3-3.7-2-5.3,0.3c-0.8,1.2-1.5,2.5-2.2,3.7c-2.5,4.2-5,8.4-7.5,12.6
		c-2.4,3.9-4.7,7.9-7.1,11.8c-2.8,4.5-2.7,5.8,1.9,8.2c3.9,2,7.9,3.8,11.9,5.6c1.7,0.8,3.6,1.4,5.5,1.7
		C982.8,304.9,988,305.6,993.5,306.7 M1018.5,348.3c0.5,4.4,1,8.9,1.6,13.3c0.2,1.3,0.6,2.5,1,3.7c0.2,0.5,0.8,0.9,1.2,1.3
		c0.3-0.5,0.8-1.1,0.9-1.6c0.9-4.7,1.7-9.4,2.6-14.2c1.5-8.5,3.1-17,4.7-25.4c1-5.3,2.1-10.5,3.1-15.8c0.3-1.9-0.9-2.1-2.4-1.9
		c-1.9,0.3-3.9,0.7-5.8,1c-4.3,0.7-8.6,1.3-12.8,2.2c-1.4,0.3-2.8,1.4-2.3,3.3c1.9,7.4,3.8,14.8,5.7,22.2
		C1016.8,340.2,1017.6,344,1018.5,348.3 M1161.6,352.9c0.7-2.4,1.1-4.9,2.2-7.1c0.6-1.4,0.3-2.2-0.7-2.7c-0.5-0.2-1.8,0.2-2.2,0.8
		c-3.7,4.7-7.2,9.6-10.8,14.3c-5.3,6.9-9,14.6-11.1,23c-0.6,2.6-0.9,5.4-1.1,8.1c-0.1,2.3,1,4.4,3.2,5c2.2,0.6,3.6-1,4.5-2.9
		c0.6-1.3,1.3-2.5,1.9-3.8c3-6.4,6.1-12.8,8.8-19.3C1158.4,363.5,1159.9,358.4,1161.6,352.9z"/>
</g>
</svg>
