<svg id="Слой_1" data-name="Слой 1" xmlns="http://www.w3.org/2000/svg" width="200" viewBox="0 0 978.01 324.11"><defs><style>.cls-1{font-size:191px;fill:#ffffff;}.cls-1,.cls-5{font-family:AmericanTypewriter, American Typewriter;}.cls-2{letter-spacing:-0.03em;}.cls-3{letter-spacing:0em;}.cls-4{letter-spacing:-0.01em;}.cls-5{font-size:207.72px;fill:#dbdbdb;}.cls-6{fill:none;stroke:#ff355d;stroke-miterlimit:10;stroke-width:5px;}</style></defs><title>lefechkablog</title><text class="cls-1" transform="translate(264.16 311.69)">e<tspan class="cls-2" x="100.85" y="0">f</tspan><tspan class="cls-3" x="161.97" y="0">e</tspan><tspan class="cls-4" x="262.82" y="0">c</tspan><tspan x="357.75" y="0">hka</tspan></text><g id="L" fill="#ffffff"><path d="M34.88,287.22a36.86,36.86,0,0,0,8.46.45,17.79,17.79,0,0,0,10.59-4.14,21,21,0,0,0,5.2-6.79A32.86,32.86,0,0,0,62,267.67c.37-2.24.72-4.49.9-6.75.21-2.73.32-5.48.32-8.22q0-93,0-185.91a38.39,38.39,0,0,0-.87-8.92c-.5-2.09-.82-4.23-1.4-6.3a23.63,23.63,0,0,0-4.36-8.68,17.09,17.09,0,0,0-9.16-6,29.35,29.35,0,0,0-3.92-.64A20.2,20.2,0,0,0,40.11,36a37.9,37.9,0,0,0-8.68,1.07A40.45,40.45,0,0,1,27,37.8a37,37,0,0,1-7.25.47,11.21,11.21,0,0,1-7.06-2.69,14.12,14.12,0,0,1-4.25-5.52A18.65,18.65,0,0,1,7.3,25.75a20.16,20.16,0,0,1-.16-4.42c.29-3.81,1.46-7.24,4.28-9.84A13.41,13.41,0,0,1,16,8.73,20,20,0,0,1,22,7.45c2.15-.09,4.31-.24,6.46-.13s4.34.51,6.52.76c1.14.13,2.3.19,3.44.33,1.51.19,3,.44,4.53.63,1,.13,2,.21,3.06.33,1.66.2,3.32.44,5,.64,1.07.13,2.14.2,3.21.33,1.66.2,3.32.44,5,.63,1.09.13,2.19.21,3.29.33l5.82.64c.69.07,1.37.12,2.06.16,1.22.06,2.44,0,3.65.18a97,97,0,0,0,12.48.46c2.08,0,4.17-.19,6.25-.31,1.45-.09,2.9-.18,4.35-.33,1.74-.18,3.47-.43,5.21-.63,1.14-.13,2.3-.19,3.44-.33,1.41-.18,2.82-.44,4.23-.63,1-.14,2-.19,3-.33,1.34-.19,2.66-.44,4-.63.94-.14,1.89-.2,2.83-.33,1.74-.25,3.48-.54,5.23-.79.94-.14,1.89-.2,2.83-.33,1.44-.2,2.87-.44,4.3-.63a14.25,14.25,0,0,1,2.06-.16c2.28,0,4.58,0,6.84.19a19.16,19.16,0,0,1,9.27,3.21,12.94,12.94,0,0,1,5.1,8.08,19.35,19.35,0,0,1,.41,5.9,15.37,15.37,0,0,1-3,8.24,13.08,13.08,0,0,1-6.8,4.91,9.2,9.2,0,0,1-2.4.43,54.1,54.1,0,0,1-5.47-.16c-1.65-.15-3.28-.52-4.92-.78-2.07-.33-4.14-.73-6.23-.94a45.45,45.45,0,0,0-6.25-.31,19.83,19.83,0,0,0-9.35,2.44,18,18,0,0,0-5.88,5.44,30.44,30.44,0,0,0-4.58,11.39A71.18,71.18,0,0,0,100,62.4a54,54,0,0,0-.31,5.41q0,93.88,0,187.75c0,2.28.13,4.57.31,6.85s.4,4.45.76,6.65a32.79,32.79,0,0,0,2.4,9,11.89,11.89,0,0,0,3.42,4,16.67,16.67,0,0,0,6.24,3,19.5,19.5,0,0,0,3.82.51c2.74.2,5.49.38,8.23.48s5.78.16,8.66.17q24.74.1,49.49.16c2.43,0,4.87-.05,7.3-.17,2-.09,4-.26,6-.48,2.41-.27,4.83-.51,7.21-1,2.84-.56,5.66-1.26,8.44-2.09a26.46,26.46,0,0,0,7.26-3.35,19.74,19.74,0,0,0,5.33-5.25,32.36,32.36,0,0,0,4.34-9.9,53.23,53.23,0,0,0,1.25-6.6c.3-2.12.39-4.27.64-6.39a115.32,115.32,0,0,0,.28-12.48c0-1.8-.08-3.6-.14-5.39-.09-2.45-.2-4.89-.3-7.34-.1-2.2-.2-4.41-.3-6.61s-.24-4.46-.3-6.69c-.08-3.11-.24-6.22-.13-9.33A23.55,23.55,0,0,1,232.48,193a12.31,12.31,0,0,1,8-6.32,20.7,20.7,0,0,1,6.64-.45,20,20,0,0,1,7.94,2,13.07,13.07,0,0,1,5.63,5.38,16.5,16.5,0,0,1,2.11,6.94,63.7,63.7,0,0,1,.28,6.85c-.09,2.49-.47,5-.72,7.46-.15,1.46-.28,2.92-.46,4.38-.22,1.74-.52,3.47-.75,5.21-.18,1.35-.28,2.71-.47,4.05-.23,1.69-.52,3.36-.75,5-.14,1-.19,2.05-.31,3.08-.19,1.55-.41,3.09-.6,4.63-.09.72-.12,1.45-.16,2.18-.11,2.12-.21,4.25-.3,6.37-.07,1.64-.1,3.27-.16,4.91,0,1.45-.16,2.9-.14,4.35,0,2.26.17,4.52.29,6.77.08,1.48.19,3,.3,4.44.19,2.46.41,4.91.6,7.36q.17,2.06.3,4.12.24,3.47.46,6.95c.05.81.12,1.61.15,2.42.06,1.77.19,3.55.14,5.31a26.73,26.73,0,0,1-1.06,7.08,16.25,16.25,0,0,1-4.39,7.38,16.76,16.76,0,0,1-7.65,4.08,45,45,0,0,1-6,1c-2,.19-4.1.17-6.16.18-1.27,0-2.54-.09-3.81-.15l-5.94-.32c-1.93-.11-3.86-.23-5.79-.32-2.69-.12-5.38-.22-8.07-.32l-4.64-.16-6.24-.16-6.54-.16c-2.18-.05-4.36-.12-6.54-.16l-10.48-.16c-4.15-.06-8.31-.14-12.46-.16q-25.21-.1-50.43-.16-19.54,0-39.08,0c-2.36,0-4.71.09-7.07.16-1.62,0-3.25.1-4.87.16l-9.13.32c-1,0-2,.11-3,.16-2.26.11-4.52.18-6.78.33-1.66.11-3.31.31-5,.47-2.19.21-4.38.45-6.58.63-1.73.14-3.46.22-5.19.33a24.94,24.94,0,0,1-3,.14,28.53,28.53,0,0,1-8.07-1.26,13.87,13.87,0,0,1-6.24-4.22,15,15,0,0,1-2.8-6,24.66,24.66,0,0,1-.41-7.27A15.3,15.3,0,0,1,9,291.05a10,10,0,0,1,4.41-4.15,12.55,12.55,0,0,1,4.81-1.28,28,28,0,0,1,3.5-.14c1.69.12,3.38.4,5.06.62l3.53.48Z"/></g><text class="cls-5" transform="translate(178.01 149.71) scale(1.4 1)">БЛОГ</text><line class="cls-6" x1="185.28" y1="168.09" x2="960.46" y2="168.09"/></svg>